{"accessors" : [{"bufferView" : 0, "byteOffset" : 0, "componentType" : 5123, "count" : 1956, "type" : "SCALAR", "max" : [1194], "min" : [0]}, {"bufferView" : 1, "byteOffset" : 0, "componentType" : 5126, "count" : 1195, "type" : "VEC3", "max" : [0.9238479733467102, 1.7160090208053589, 1.6670520305633545], "min" : [-0.9238489866256714, 0.20235900580883026, -1.7920550107955933], "name" : "POSITION"}, {"bufferView" : 1, "byteOffset" : 12, "componentType" : 5126, "count" : 1195, "type" : "VEC2", "max" : [0.19985899329185486, 0.3384280204772949], "min" : [0.007486999966204166, 0.00455397367477417], "name" : "TEXCOORD_0"}, {"bufferView" : 1, "byteOffset" : 20, "componentType" : 5126, "count" : 1195, "type" : "VEC3", "max" : [1.0000044107437134, 1.0000026226043701, 1.0000044107437134], "min" : [-1.0000044107437134, -1.0000044107437134, -1.0000044107437134], "name" : "NORMAL"}, {"bufferView" : 0, "byteOffset" : 3912, "componentType" : 5123, "count" : 468, "type" : "SCALAR", "max" : [295], "min" : [0]}, {"bufferView" : 2, "byteOffset" : 0, "componentType" : 5126, "count" : 296, "type" : "VEC3", "max" : [1.0883209705352783, 1.6951559782028198, 0.6502569913864136], "min" : [0.6852880120277405, 0.28179898858070374, -0.7900559902191162], "name" : "POSITION"}, {"bufferView" : 2, "byteOffset" : 12, "componentType" : 5126, "count" : 296, "type" : "VEC2", "max" : [0.1371760070323944, 0.33614301681518555], "min" : [0.022650999948382378, 0.023495972156524658], "name" : "TEXCOORD_0"}, {"bufferView" : 2, "byteOffset" : 20, "componentType" : 5126, "count" : 296, "type" : "VEC3", "max" : [1.0000044107437134, 1.0000044107437134, 1.0000044107437134], "min" : [-1.0000044107437134, -1.0000044107437134, -1.0000044107437134], "name" : "NORMAL"}, {"bufferView" : 0, "byteOffset" : 4848, "componentType" : 5123, "count" : 468, "type" : "SCALAR", "max" : [295], "min" : [0]}, {"bufferView" : 3, "byteOffset" : 0, "componentType" : 5126, "count" : 296, "type" : "VEC3", "max" : [-0.6852880120277405, 1.6951559782028198, 0.6502580046653748], "min" : [-1.0883209705352783, 0.2818000018596649, -0.7900559902191162], "name" : "POSITION"}, {"bufferView" : 3, "byteOffset" : 12, "componentType" : 5126, "count" : 296, "type" : "VEC2", "max" : [0.1371760070323944, 0.33614301681518555], "min" : [0.022650999948382378, 0.023495972156524658], "name" : "TEXCOORD_0"}, {"bufferView" : 3, "byteOffset" : 20, "componentType" : 5126, "count" : 296, "type" : "VEC3", "max" : [1.0000044107437134, 1.0000044107437134, 1.0000044107437134], "min" : [-1.0000044107437134, -1.0000044107437134, -1.0000044107437134], "name" : "NORMAL"}, {"bufferView" : 0, "byteOffset" : 5784, "componentType" : 5123, "count" : 1032, "type" : "SCALAR", "max" : [633], "min" : [0]}, {"bufferView" : 4, "byteOffset" : 0, "componentType" : 5126, "count" : 634, "type" : "VEC3", "max" : [0.807968020439148, 1.4330559968948364, 0.8943399786949158], "min" : [-0.807968020439148, 0.2293979972600937, -0.7787600159645081], "name" : "POSITION"}, {"bufferView" : 4, "byteOffset" : 12, "componentType" : 5126, "count" : 634, "type" : "VEC2", "max" : [0.13156099617481232, 0.3357509970664978], "min" : [0.028553999960422516, 0.00855100154876709], "name" : "TEXCOORD_0"}, {"bufferView" : 4, "byteOffset" : 20, "componentType" : 5126, "count" : 634, "type" : "VEC3", "max" : [1.0000044107437134, 1.000002145767212, 1.0000044107437134], "min" : [-1.0000044107437134, -0.9999982118606567, -1.0000044107437134], "name" : "NORMAL"}, {"bufferView" : 0, "byteOffset" : 7848, "componentType" : 5123, "count" : 1434, "type" : "SCALAR", "max" : [480], "min" : [0]}, {"bufferView" : 5, "byteOffset" : 0, "componentType" : 5126, "count" : 481, "type" : "VEC3", "max" : [0.9104779958724976, 0.6483749747276306, -0.9159759879112244], "min" : [0.6529399752616882, 0.002119000069797039, -1.5657320022583008], "name" : "POSITION"}, {"bufferView" : 5, "byteOffset" : 12, "componentType" : 5126, "count" : 481, "type" : "VEC2", "max" : [0.12058199942111969, 0.04275399446487427], "min" : [0.028850000351667404, 0.025568008422851562], "name" : "TEXCOORD_0"}, {"bufferView" : 5, "byteOffset" : 20, "componentType" : 5126, "count" : 481, "type" : "VEC3", "max" : [1.0000044107437134, 0.9946232438087463, 1.0000039339065552], "min" : [-1.0000044107437134, -0.9946232438087463, -1.0000039339065552], "name" : "NORMAL"}, {"bufferView" : 0, "byteOffset" : 10716, "componentType" : 5123, "count" : 1434, "type" : "SCALAR", "max" : [480], "min" : [0]}, {"bufferView" : 6, "byteOffset" : 0, "componentType" : 5126, "count" : 481, "type" : "VEC3", "max" : [-0.6529399752616882, 0.6483749747276306, -0.9159759879112244], "min" : [-0.9104779958724976, 0.002119000069797039, -1.5657310485839844], "name" : "POSITION"}, {"bufferView" : 6, "byteOffset" : 12, "componentType" : 5126, "count" : 481, "type" : "VEC2", "max" : [0.12058199942111969, 0.04275399446487427], "min" : [0.028850000351667404, 0.025568008422851562], "name" : "TEXCOORD_0"}, {"bufferView" : 6, "byteOffset" : 20, "componentType" : 5126, "count" : 481, "type" : "VEC3", "max" : [1.0000044107437134, 0.9946232438087463, 1.0000039339065552], "min" : [-1.0000044107437134, -0.9946232438087463, -1.0000039339065552], "name" : "NORMAL"}, {"bufferView" : 0, "byteOffset" : 13584, "componentType" : 5123, "count" : 1434, "type" : "SCALAR", "max" : [480], "min" : [0]}, {"bufferView" : 7, "byteOffset" : 0, "componentType" : 5126, "count" : 481, "type" : "VEC3", "max" : [0.9104779958724976, 0.6483749747276306, 1.396347999572754], "min" : [0.6529399752616882, 0.002119000069797039, 0.7465919852256775], "name" : "POSITION"}, {"bufferView" : 7, "byteOffset" : 12, "componentType" : 5126, "count" : 481, "type" : "VEC2", "max" : [0.12058199942111969, 0.04275399446487427], "min" : [0.028850000351667404, 0.025568008422851562], "name" : "TEXCOORD_0"}, {"bufferView" : 7, "byteOffset" : 20, "componentType" : 5126, "count" : 481, "type" : "VEC3", "max" : [1.0000044107437134, 0.9946232438087463, 1.0000039339065552], "min" : [-1.0000044107437134, -0.9946232438087463, -1.0000039339065552], "name" : "NORMAL"}, {"bufferView" : 0, "byteOffset" : 16452, "componentType" : 5123, "count" : 1434, "type" : "SCALAR", "max" : [480], "min" : [0]}, {"bufferView" : 8, "byteOffset" : 0, "componentType" : 5126, "count" : 481, "type" : "VEC3", "max" : [-0.6529399752616882, 0.6483749747276306, 1.396347999572754], "min" : [-0.9104779958724976, 0.002119000069797039, 0.7465919852256775], "name" : "POSITION"}, {"bufferView" : 8, "byteOffset" : 12, "componentType" : 5126, "count" : 481, "type" : "VEC2", "max" : [0.12058199942111969, 0.04275399446487427], "min" : [0.028850000351667404, 0.025568008422851562], "name" : "TEXCOORD_0"}, {"bufferView" : 8, "byteOffset" : 20, "componentType" : 5126, "count" : 481, "type" : "VEC3", "max" : [1.0000044107437134, 0.9946232438087463, 1.0000039339065552], "min" : [-1.0000044107437134, -0.9946232438087463, -1.0000039339065552], "name" : "NORMAL"}, {"bufferView" : 0, "byteOffset" : 19320, "componentType" : 5123, "count" : 6, "type" : "SCALAR", "max" : [3], "min" : [0]}, {"bufferView" : 9, "byteOffset" : 0, "componentType" : 5126, "count" : 4, "type" : "VEC3", "max" : [0.8331689834594727, 1.6682720184326172, 0.5320379734039307], "min" : [0.6852880120277405, 1.0912890434265137, -0.7268270254135132], "name" : "POSITION"}, {"bufferView" : 9, "byteOffset" : 12, "componentType" : 5126, "count" : 4, "type" : "VEC2", "max" : [0.06362300366163254, 0.04070699214935303], "min" : [0.06339900195598602, 0.03967297077178955], "name" : "TEXCOORD_0"}, {"bufferView" : 9, "byteOffset" : 20, "componentType" : 5126, "count" : 4, "type" : "VEC3", "max" : [0.9685857892036438, 0.24869634211063385, -0.0005999911809340119], "min" : [0.9685857892036438, 0.24869634211063385, -0.0005999911809340119], "name" : "NORMAL"}, {"bufferView" : 0, "byteOffset" : 19332, "componentType" : 5123, "count" : 6, "type" : "SCALAR", "max" : [3], "min" : [0]}, {"bufferView" : 10, "byteOffset" : 0, "componentType" : 5126, "count" : 4, "type" : "VEC3", "max" : [-0.6852880120277405, 1.6682720184326172, 0.5320379734039307], "min" : [-0.8331689834594727, 1.0912890434265137, -0.7268270254135132], "name" : "POSITION"}, {"bufferView" : 10, "byteOffset" : 12, "componentType" : 5126, "count" : 4, "type" : "VEC2", "max" : [0.06655800342559814, 0.040067970752716064], "min" : [0.06655800342559814, 0.040067970752716064], "name" : "TEXCOORD_0"}, {"bufferView" : 10, "byteOffset" : 20, "componentType" : 5126, "count" : 4, "type" : "VEC3", "max" : [-0.9685857892036438, 0.24869634211063385, -0.0005999911809340119], "min" : [-0.9685857892036438, 0.24869634211063385, -0.0005999911809340119], "name" : "NORMAL"}, {"bufferView" : 0, "byteOffset" : 19344, "componentType" : 5123, "count" : 30, "type" : "SCALAR", "max" : [17], "min" : [0]}, {"bufferView" : 11, "byteOffset" : 0, "componentType" : 5126, "count" : 18, "type" : "VEC3", "max" : [0.832843005657196, 1.6699260473251343, 0.6659219861030579], "min" : [-0.832843005657196, 1.0708999633789062, -1.7224249839782715], "name" : "POSITION"}, {"bufferView" : 11, "byteOffset" : 12, "componentType" : 5126, "count" : 18, "type" : "VEC2", "max" : [0.06661900132894516, 0.04251599311828613], "min" : [0.06655800342559814, 0.040067970752716064], "name" : "TEXCOORD_0"}, {"bufferView" : 11, "byteOffset" : 20, "componentType" : 5126, "count" : 18, "type" : "VEC3", "max" : [0.9686884880065918, 0.7561739087104797, 0.6543774008750916], "min" : [-0.9686884880065918, 0.24829703569412231, -0.886660099029541], "name" : "NORMAL"}, {"bufferView" : 0, "byteOffset" : 19404, "componentType" : 5123, "count" : 54, "type" : "SCALAR", "max" : [27], "min" : [0]}, {"bufferView" : 12, "byteOffset" : 0, "componentType" : 5126, "count" : 28, "type" : "VEC3", "max" : [0.25538399815559387, 0.8685190081596375, -1.759861946105957], "min" : [-0.25538399815559387, 0.7181119918823242, -1.7725590467453003], "name" : "POSITION"}, {"bufferView" : 12, "byteOffset" : 12, "componentType" : 5126, "count" : 28, "type" : "VEC2", "max" : [0.16862499713897705, 0.41932398080825806], "min" : [0.013875000178813934, 0.04189199209213257], "name" : "TEXCOORD_0"}, {"bufferView" : 12, "byteOffset" : 20, "componentType" : 5126, "count" : 28, "type" : "VEC3", "max" : [1.0000044107437134, 1.0000044107437134, 1.0000044107437134], "min" : [-1.0000044107437134, -1.0000044107437134, 0], "name" : "NORMAL"}], "asset" : {"generator" : "Aspose.3D 24.9.1", "version" : "2.0"}, "buffers" : [{"uri" : "data:application/octet-stream;base64,", "byteLength" : 160332}], "bufferViews" : [{"buffer" : 0, "byteOffset" : 0, "byteLength" : 19512, "target" : 34963}, {"buffer" : 0, "byteOffset" : 19516, "byteLength" : 38240, "byteStride" : 32, "target" : 34962}, {"buffer" : 0, "byteOffset" : 57760, "byteLength" : 9472, "byteStride" : 32, "target" : 34962}, {"buffer" : 0, "byteOffset" : 67236, "byteLength" : 9472, "byteStride" : 32, "target" : 34962}, {"buffer" : 0, "byteOffset" : 76712, "byteLength" : 20288, "byteStride" : 32, "target" : 34962}, {"buffer" : 0, "byteOffset" : 97004, "byteLength" : 15392, "byteStride" : 32, "target" : 34962}, {"buffer" : 0, "byteOffset" : 112400, "byteLength" : 15392, "byteStride" : 32, "target" : 34962}, {"buffer" : 0, "byteOffset" : 127796, "byteLength" : 15392, "byteStride" : 32, "target" : 34962}, {"buffer" : 0, "byteOffset" : 143192, "byteLength" : 15392, "byteStride" : 32, "target" : 34962}, {"buffer" : 0, "byteOffset" : 158588, "byteLength" : 128, "byteStride" : 32, "target" : 34962}, {"buffer" : 0, "byteOffset" : 158720, "byteLength" : 128, "byteStride" : 32, "target" : 34962}, {"buffer" : 0, "byteOffset" : 158852, "byteLength" : 576, "byteStride" : 32, "target" : 34962}, {"buffer" : 0, "byteOffset" : 159432, "byteLength" : 896, "byteStride" : 32, "target" : 34962}], "meshes" : [{"primitives" : [{"attributes" : {"POSITION" : 1, "TEXCOORD_0" : 2, "NORMAL" : 3}, "indices" : 0, "mode" : 4}], "name" : ""}, {"primitives" : [{"attributes" : {"POSITION" : 5, "TEXCOORD_0" : 6, "NORMAL" : 7}, "indices" : 4, "mode" : 4}], "name" : ""}, {"primitives" : [{"attributes" : {"POSITION" : 9, "TEXCOORD_0" : 10, "NORMAL" : 11}, "indices" : 8, "mode" : 4}], "name" : ""}, {"primitives" : [{"attributes" : {"POSITION" : 13, "TEXCOORD_0" : 14, "NORMAL" : 15}, "indices" : 12, "mode" : 4}], "name" : ""}, {"primitives" : [{"attributes" : {"POSITION" : 17, "TEXCOORD_0" : 18, "NORMAL" : 19}, "indices" : 16, "mode" : 4}], "name" : ""}, {"primitives" : [{"attributes" : {"POSITION" : 21, "TEXCOORD_0" : 22, "NORMAL" : 23}, "indices" : 20, "mode" : 4}], "name" : ""}, {"primitives" : [{"attributes" : {"POSITION" : 25, "TEXCOORD_0" : 26, "NORMAL" : 27}, "indices" : 24, "mode" : 4}], "name" : ""}, {"primitives" : [{"attributes" : {"POSITION" : 29, "TEXCOORD_0" : 30, "NORMAL" : 31}, "indices" : 28, "mode" : 4}], "name" : ""}, {"primitives" : [{"attributes" : {"POSITION" : 33, "TEXCOORD_0" : 34, "NORMAL" : 35}, "indices" : 32, "mode" : 4}], "name" : ""}, {"primitives" : [{"attributes" : {"POSITION" : 37, "TEXCOORD_0" : 38, "NORMAL" : 39}, "indices" : 36, "mode" : 4}], "name" : ""}, {"primitives" : [{"attributes" : {"POSITION" : 41, "TEXCOORD_0" : 42, "NORMAL" : 43}, "indices" : 40, "mode" : 4}], "name" : ""}, {"primitives" : [{"attributes" : {"POSITION" : 45, "TEXCOORD_0" : 46, "NORMAL" : 47}, "indices" : 44, "mode" : 4}], "name" : ""}], "nodes" : [{"mesh" : 0, "name" : "car_body_Circle.073_MAIN"}, {"mesh" : 1, "name" : "door_l_Circle.072_MAIN"}, {"mesh" : 2, "name" : "door_r_Circle.071_MAIN"}, {"mesh" : 3, "name" : "interior_Circle.070_MAIN"}, {"mesh" : 4, "name" : "wheel_bl_Circle.069_MAIN"}, {"mesh" : 5, "name" : "wheel_br_Circle.068_MAIN"}, {"mesh" : 6, "name" : "wheel_fl_Circle.067_MAIN"}, {"mesh" : 7, "name" : "wheel_fr_Circle.050_MAIN"}, {"mesh" : 8, "name" : "win_door_l.001_Circle.076_WINDOW"}, {"mesh" : 9, "name" : "win_door_r.001_Circle.075_WINDOW"}, {"mesh" : 10, "name" : "windows_Circle.074_WINDOW"}, {"mesh" : 11, "name" : "free_number_Circle.001_MAIN"}], "scene" : 0, "scenes" : [{"nodes" : [0, 1, 2, 3, 4, 5, 6, 7, 8, 9, 10, 11]}]}