{"accessors" : [{"bufferView" : 0, "byteOffset" : 0, "componentType" : 5123, "count" : 5760, "type" : "SCALAR", "max" : [2732], "min" : [0]}, {"bufferView" : 1, "byteOffset" : 0, "componentType" : 5126, "count" : 2733, "type" : "VEC3", "max" : [0.7664179801940918, 1.6784909963607788, 0.5180829763412476], "min" : [-0.6443060040473938, 0.2656939923763275, -0.5747269988059998], "name" : "POSITION"}, {"bufferView" : 1, "byteOffset" : 12, "componentType" : 5126, "count" : 2733, "type" : "VEC2", "max" : [0, 1], "min" : [0, 1], "name" : "TEXCOORD_0"}, {"bufferView" : 1, "byteOffset" : 20, "componentType" : 5126, "count" : 2733, "type" : "VEC3", "max" : [0.9999959468841553, 0.3252144157886505, 0.9990468621253967], "min" : [-0.9937037229537964, -0.9954161643981934, -0.9990881681442261], "name" : "NORMAL"}, {"bufferView" : 0, "byteOffset" : 11520, "componentType" : 5123, "count" : 118488, "type" : "SCALAR", "max" : [23945], "min" : [0]}, {"bufferView" : 2, "byteOffset" : 0, "componentType" : 5126, "count" : 23946, "type" : "VEC3", "max" : [0.8606539964675903, 1.7584160566329956, 0.6143580079078674], "min" : [-0.8033530116081238, 0.11210499703884125, -0.6501719951629639], "name" : "POSITION"}, {"bufferView" : 2, "byteOffset" : 12, "componentType" : 5126, "count" : 23946, "type" : "VEC2", "max" : [1, 1], "min" : [0, 0], "name" : "TEXCOORD_0"}, {"bufferView" : 2, "byteOffset" : 20, "componentType" : 5126, "count" : 23946, "type" : "VEC3", "max" : [0.999849259853363, 0.9994463920593262, 0.9999924302101135], "min" : [-0.9999876022338867, -0.9999895095825195, -0.999989926815033], "name" : "NORMAL"}, {"bufferView" : 0, "byteOffset" : 248496, "componentType" : 5123, "count" : 30888, "type" : "SCALAR", "max" : [5836], "min" : [0]}, {"bufferView" : 3, "byteOffset" : 0, "componentType" : 5126, "count" : 5837, "type" : "VEC3", "max" : [0.8672429919242859, 0.994517982006073, 0.6174179911613464], "min" : [-0.8511509895324707, 0.39635899662971497, -0.6640849709510803], "name" : "POSITION"}, {"bufferView" : 3, "byteOffset" : 12, "componentType" : 5126, "count" : 5837, "type" : "VEC2", "max" : [0.875, 1], "min" : [0, 0], "name" : "TEXCOORD_0"}, {"bufferView" : 3, "byteOffset" : 20, "componentType" : 5126, "count" : 5837, "type" : "VEC3", "max" : [0.9998351335525513, 1.0000044107437134, 0.9999563694000244], "min" : [-0.9998891353607178, -1.0000044107437134, -0.9999563694000244], "name" : "NORMAL"}, {"bufferView" : 0, "byteOffset" : 310272, "componentType" : 5123, "count" : 408, "type" : "SCALAR", "max" : [243], "min" : [0]}, {"bufferView" : 4, "byteOffset" : 0, "componentType" : 5126, "count" : 244, "type" : "VEC3", "max" : [0.264616996049881, 0.9336429834365845, 0.24914200603961945], "min" : [-0.6599699854850769, 0.8226709961891174, -0.17298300564289093], "name" : "POSITION"}, {"bufferView" : 4, "byteOffset" : 12, "componentType" : 5126, "count" : 244, "type" : "VEC2", "max" : [0.875, 1], "min" : [0.125, 0], "name" : "TEXCOORD_0"}, {"bufferView" : 4, "byteOffset" : 20, "componentType" : 5126, "count" : 244, "type" : "VEC3", "max" : [0.9999563694000244, 0.9989364147186279, 0.9999563694000244], "min" : [-0.9999563694000244, -0.9989364147186279, -0.9999563694000244], "name" : "NORMAL"}, {"bufferView" : 0, "byteOffset" : 311088, "componentType" : 5123, "count" : 360, "type" : "SCALAR", "max" : [215], "min" : [0]}, {"bufferView" : 5, "byteOffset" : 0, "componentType" : 5126, "count" : 216, "type" : "VEC3", "max" : [-0.21252299845218658, 0.6874120235443115, 0.6339920163154602], "min" : [-0.5092149972915649, 0.6627839803695679, -0.6710529923439026], "name" : "POSITION"}, {"bufferView" : 5, "byteOffset" : 12, "componentType" : 5126, "count" : 216, "type" : "VEC2", "max" : [0.875, 1], "min" : [0.125, 0], "name" : "TEXCOORD_0"}, {"bufferView" : 5, "byteOffset" : 20, "componentType" : 5126, "count" : 216, "type" : "VEC3", "max" : [0.9999563694000244, 1.0000044107437134, 0.9999864101409912], "min" : [-0.9999563694000244, -1.0000044107437134, -0.9999864101409912], "name" : "NORMAL"}, {"bufferView" : 0, "byteOffset" : 311808, "componentType" : 5123, "count" : 588, "type" : "SCALAR", "max" : [143], "min" : [0]}, {"bufferView" : 6, "byteOffset" : 0, "componentType" : 5126, "count" : 144, "type" : "VEC3", "max" : [0.7959359884262085, 0.7026659846305847, 0.4040049910545349], "min" : [-0.8294140100479126, 0.4158079922199249, -0.4578759968280792], "name" : "POSITION"}, {"bufferView" : 6, "byteOffset" : 12, "componentType" : 5126, "count" : 144, "type" : "VEC2", "max" : [0.625, 1], "min" : [0, 0.5602149963378906], "name" : "TEXCOORD_0"}, {"bufferView" : 6, "byteOffset" : 20, "componentType" : 5126, "count" : 144, "type" : "VEC3", "max" : [0.9804723262786865, 0.39929303526878357, 0.358707994222641], "min" : [-0.9167839884757996, -0.5615077614784241, -0.3757978081703186], "name" : "NORMAL"}, {"bufferView" : 0, "byteOffset" : 312984, "componentType" : 5123, "count" : 588, "type" : "SCALAR", "max" : [143], "min" : [0]}, {"bufferView" : 7, "byteOffset" : 0, "componentType" : 5126, "count" : 144, "type" : "VEC3", "max" : [0.8249369859695435, 0.7138580083847046, 0.5130789875984192], "min" : [-0.8368409872055054, 0.5575140118598938, -0.5719619989395142], "name" : "POSITION"}, {"bufferView" : 7, "byteOffset" : 12, "componentType" : 5126, "count" : 144, "type" : "VEC2", "max" : [0.625, 1], "min" : [0, 0.5], "name" : "TEXCOORD_0"}, {"bufferView" : 7, "byteOffset" : 20, "componentType" : 5126, "count" : 144, "type" : "VEC3", "max" : [0.9998351335525513, 0.37079066038131714, 0.34241896867752075], "min" : [-0.9286766648292542, -0.421983540058136, -0.3608161211013794], "name" : "NORMAL"}, {"bufferView" : 0, "byteOffset" : 314160, "componentType" : 5123, "count" : 180, "type" : "SCALAR", "max" : [63], "min" : [0]}, {"bufferView" : 8, "byteOffset" : 0, "componentType" : 5126, "count" : 64, "type" : "VEC3", "max" : [0.17332099378108978, 0.9795560240745544, 0.6024709939956665], "min" : [0.16101700067520142, 0.8638650178909302, -0.6489520072937012], "name" : "POSITION"}, {"bufferView" : 8, "byteOffset" : 12, "componentType" : 5126, "count" : 64, "type" : "VEC2", "max" : [0, 1], "min" : [0, 1], "name" : "TEXCOORD_0"}, {"bufferView" : 8, "byteOffset" : 20, "componentType" : 5126, "count" : 64, "type" : "VEC3", "max" : [-0.9739706516265869, 0.21710141003131866, 0.22669315338134766], "min" : [-0.9782378077507019, -0.21710141003131866, -0.20750801265239716], "name" : "NORMAL"}, {"bufferView" : 0, "byteOffset" : 314520, "componentType" : 5123, "count" : 852, "type" : "SCALAR", "max" : [143], "min" : [0]}, {"bufferView" : 9, "byteOffset" : 0, "componentType" : 5126, "count" : 144, "type" : "VEC3", "max" : [0.5574280023574829, 0.2275169938802719, -0.46367600560188293], "min" : [0.3319750130176544, 0.0032339999452233315, -0.5898029804229736], "name" : "POSITION"}, {"bufferView" : 9, "byteOffset" : 12, "componentType" : 5126, "count" : 144, "type" : "VEC2", "max" : [0, 1], "min" : [0, 1], "name" : "TEXCOORD_0"}, {"bufferView" : 9, "byteOffset" : 20, "componentType" : 5126, "count" : 144, "type" : "VEC3", "max" : [0.9279142022132874, 0.9315459728240967, 0.6730241179466248], "min" : [-0.9350987672805786, -0.9315459728240967, -0.9999924302101135], "name" : "NORMAL"}, {"bufferView" : 0, "byteOffset" : 316224, "componentType" : 5123, "count" : 852, "type" : "SCALAR", "max" : [143], "min" : [0]}, {"bufferView" : 10, "byteOffset" : 0, "componentType" : 5126, "count" : 144, "type" : "VEC3", "max" : [0.5672370195388794, 0.2275169938802719, 0.5377680063247681], "min" : [0.3417840003967285, 0.0032339999452233315, 0.411641001701355], "name" : "POSITION"}, {"bufferView" : 10, "byteOffset" : 12, "componentType" : 5126, "count" : 144, "type" : "VEC2", "max" : [0, 1], "min" : [0, 1], "name" : "TEXCOORD_0"}, {"bufferView" : 10, "byteOffset" : 20, "componentType" : 5126, "count" : 144, "type" : "VEC3", "max" : [0.9350987672805786, 0.9315459728240967, 0.9999924302101135], "min" : [-0.9279142022132874, -0.9315459728240967, -0.6730241179466248], "name" : "NORMAL"}, {"bufferView" : 0, "byteOffset" : 317928, "componentType" : 5123, "count" : 852, "type" : "SCALAR", "max" : [143], "min" : [0]}, {"bufferView" : 11, "byteOffset" : 0, "componentType" : 5126, "count" : 144, "type" : "VEC3", "max" : [-0.3440670073032379, 0.2275169938802719, -0.45481300354003906], "min" : [-0.5695199966430664, 0.0032339999452233315, -0.5809400081634521], "name" : "POSITION"}, {"bufferView" : 11, "byteOffset" : 12, "componentType" : 5126, "count" : 144, "type" : "VEC2", "max" : [0, 1], "min" : [0, 1], "name" : "TEXCOORD_0"}, {"bufferView" : 11, "byteOffset" : 20, "componentType" : 5126, "count" : 144, "type" : "VEC3", "max" : [0.9279142022132874, 0.9315459728240967, 0.6730241179466248], "min" : [-0.9350987672805786, -0.9315459728240967, -0.9999924302101135], "name" : "NORMAL"}, {"bufferView" : 0, "byteOffset" : 319632, "componentType" : 5123, "count" : 852, "type" : "SCALAR", "max" : [143], "min" : [0]}, {"bufferView" : 12, "byteOffset" : 0, "componentType" : 5126, "count" : 144, "type" : "VEC3", "max" : [-0.33425700664520264, 0.2275169938802719, 0.5466309785842896], "min" : [-0.5597100257873535, 0.0032339999452233315, 0.42050400376319885], "name" : "POSITION"}, {"bufferView" : 12, "byteOffset" : 12, "componentType" : 5126, "count" : 144, "type" : "VEC2", "max" : [0, 1], "min" : [0, 1], "name" : "TEXCOORD_0"}, {"bufferView" : 12, "byteOffset" : 20, "componentType" : 5126, "count" : 144, "type" : "VEC3", "max" : [0.9350987672805786, 0.9315459728240967, 0.9999924302101135], "min" : [-0.9279142022132874, -0.9315459728240967, -0.6730241179466248], "name" : "NORMAL"}], "asset" : {"generator" : "Aspose.3D 24.9.1", "version" : "2.0"}, "buffers" : [{"uri" : "data:application/octet-stream;base64,", "byteLength" : 1406316}], "bufferViews" : [{"buffer" : 0, "byteOffset" : 0, "byteLength" : 321336, "target" : 34963}, {"buffer" : 0, "byteOffset" : 321340, "byteLength" : 87456, "byteStride" : 32, "target" : 34962}, {"buffer" : 0, "byteOffset" : 408800, "byteLength" : 766272, "byteStride" : 32, "target" : 34962}, {"buffer" : 0, "byteOffset" : 1175076, "byteLength" : 186784, "byteStride" : 32, "target" : 34962}, {"buffer" : 0, "byteOffset" : 1361864, "byteLength" : 7808, "byteStride" : 32, "target" : 34962}, {"buffer" : 0, "byteOffset" : 1369676, "byteLength" : 6912, "byteStride" : 32, "target" : 34962}, {"buffer" : 0, "byteOffset" : 1376592, "byteLength" : 4608, "byteStride" : 32, "target" : 34962}, {"buffer" : 0, "byteOffset" : 1381204, "byteLength" : 4608, "byteStride" : 32, "target" : 34962}, {"buffer" : 0, "byteOffset" : 1385816, "byteLength" : 2048, "byteStride" : 32, "target" : 34962}, {"buffer" : 0, "byteOffset" : 1387868, "byteLength" : 4608, "byteStride" : 32, "target" : 34962}, {"buffer" : 0, "byteOffset" : 1392480, "byteLength" : 4608, "byteStride" : 32, "target" : 34962}, {"buffer" : 0, "byteOffset" : 1397092, "byteLength" : 4608, "byteStride" : 32, "target" : 34962}, {"buffer" : 0, "byteOffset" : 1401704, "byteLength" : 4608, "byteStride" : 32, "target" : 34962}], "meshes" : [{"primitives" : [{"attributes" : {"POSITION" : 1, "TEXCOORD_0" : 2, "NORMAL" : 3}, "indices" : 0, "mode" : 4}, {"attributes" : {"POSITION" : 5, "TEXCOORD_0" : 6, "NORMAL" : 7}, "indices" : 4, "mode" : 4}, {"attributes" : {"POSITION" : 9, "TEXCOORD_0" : 10, "NORMAL" : 11}, "indices" : 8, "mode" : 4}, {"attributes" : {"POSITION" : 13, "TEXCOORD_0" : 14, "NORMAL" : 15}, "indices" : 12, "mode" : 4}, {"attributes" : {"POSITION" : 17, "TEXCOORD_0" : 18, "NORMAL" : 19}, "indices" : 16, "mode" : 4}, {"attributes" : {"POSITION" : 21, "TEXCOORD_0" : 22, "NORMAL" : 23}, "indices" : 20, "mode" : 4}, {"attributes" : {"POSITION" : 25, "TEXCOORD_0" : 26, "NORMAL" : 27}, "indices" : 24, "mode" : 4}, {"attributes" : {"POSITION" : 29, "TEXCOORD_0" : 30, "NORMAL" : 31}, "indices" : 28, "mode" : 4}], "name" : ""}, {"primitives" : [{"attributes" : {"POSITION" : 33, "TEXCOORD_0" : 34, "NORMAL" : 35}, "indices" : 32, "mode" : 4}], "name" : ""}, {"primitives" : [{"attributes" : {"POSITION" : 37, "TEXCOORD_0" : 38, "NORMAL" : 39}, "indices" : 36, "mode" : 4}], "name" : ""}, {"primitives" : [{"attributes" : {"POSITION" : 41, "TEXCOORD_0" : 42, "NORMAL" : 43}, "indices" : 40, "mode" : 4}], "name" : ""}, {"primitives" : [{"attributes" : {"POSITION" : 45, "TEXCOORD_0" : 46, "NORMAL" : 47}, "indices" : 44, "mode" : 4}], "name" : ""}], "nodes" : [{"mesh" : 0, "name" : "CAR.001_Plane.013"}, {"mesh" : 1, "name" : "wheel.001_Plane.002"}, {"mesh" : 2, "name" : "wheel_Plane.003"}, {"mesh" : 3, "name" : "wheel.002_Plane.004"}, {"mesh" : 4, "name" : "wheel.003_Plane.005"}], "scene" : 0, "scenes" : [{"nodes" : [0, 1, 2, 3, 4]}]}