{"accessors" : [{"bufferView" : 0, "byteOffset" : 0, "componentType" : 5123, "count" : 71208, "type" : "SCALAR", "max" : [47471], "min" : [0]}, {"bufferView" : 1, "byteOffset" : 0, "componentType" : 5126, "count" : 47472, "type" : "VEC3", "max" : [25.0492000579834, 8.311269760131836, 45.71189880371094], "min" : [-25.0492000579834, -1.3659900426864624, -17.07819938659668], "name" : "POSITION"}, {"bufferView" : 1, "byteOffset" : 12, "componentType" : 5126, "count" : 47472, "type" : "VEC2", "max" : [0.9788479804992676, 0.9655827879905701], "min" : [0.025355899706482887, 0.023167014122009277], "name" : "TEXCOORD_0"}, {"bufferView" : 1, "byteOffset" : 20, "componentType" : 5126, "count" : 47472, "type" : "VEC3", "max" : [0.9997702836990356, 1.0000032186508179, 0.9972242712974548], "min" : [-0.9997702836990356, -0.999965488910675, -0.9972978830337524], "name" : "NORMAL"}, {"bufferView" : 0, "byteOffset" : 142416, "componentType" : 5123, "count" : 1584, "type" : "SCALAR", "max" : [1103], "min" : [0]}, {"bufferView" : 2, "byteOffset" : 0, "componentType" : 5126, "count" : 1104, "type" : "VEC3", "max" : [4.0871500968933105, 8.156709671020508, -11.722599983215332], "min" : [1.7128499746322632, 5.770780086517334, -14.095499992370605], "name" : "POSITION"}, {"bufferView" : 2, "byteOffset" : 12, "componentType" : 5126, "count" : 1104, "type" : "VEC3", "max" : [0.9945415258407593, 0.9993952512741089, 0.9939050674438477], "min" : [-0.9945415258407593, -0.9993953108787537, -0.9939048290252686], "name" : "NORMAL"}, {"bufferView" : 0, "byteOffset" : 145584, "componentType" : 5123, "count" : 1584, "type" : "SCALAR", "max" : [1103], "min" : [0]}, {"bufferView" : 3, "byteOffset" : 0, "componentType" : 5126, "count" : 1104, "type" : "VEC3", "max" : [-1.7128499746322632, 8.156709671020508, -11.722599983215332], "min" : [-4.0871500968933105, 5.770780086517334, -14.095499992370605], "name" : "POSITION"}, {"bufferView" : 3, "byteOffset" : 12, "componentType" : 5126, "count" : 1104, "type" : "VEC3", "max" : [0.9945415258407593, 0.9993952512741089, 0.9939050674438477], "min" : [-0.9945415258407593, -0.9993953108787537, -0.9939048290252686], "name" : "NORMAL"}], "asset" : {"generator" : "Aspose.3D 24.9.1", "version" : "2.0"}, "buffers" : [{"uri" : "data:application/octet-stream;base64,", "byteLength" : 1720864}], "bufferViews" : [{"buffer" : 0, "byteOffset" : 0, "byteLength" : 148752, "target" : 34963}, {"buffer" : 0, "byteOffset" : 148756, "byteLength" : 1519104, "byteStride" : 32, "target" : 34962}, {"buffer" : 0, "byteOffset" : 1667864, "byteLength" : 26496, "byteStride" : 24, "target" : 34962}, {"buffer" : 0, "byteOffset" : 1694364, "byteLength" : 26496, "byteStride" : 24, "target" : 34962}], "meshes" : [{"primitives" : [{"attributes" : {"POSITION" : 1, "TEXCOORD_0" : 2, "NORMAL" : 3}, "indices" : 0, "mode" : 4}], "name" : ""}, {"primitives" : [{"attributes" : {"POSITION" : 5, "NORMAL" : 6}, "indices" : 4, "mode" : 4}], "name" : ""}, {"primitives" : [{"attributes" : {"POSITION" : 8, "NORMAL" : 9}, "indices" : 7, "mode" : 4}], "name" : ""}], "nodes" : [{"mesh" : 0, "name" : "Body"}, {"mesh" : 1, "name" : "Eye1"}, {"mesh" : 2, "name" : "Eye2"}], "scene" : 0, "scenes" : [{"nodes" : [0, 1, 2]}]}