{"accessors" : [{"bufferView" : 0, "byteOffset" : 0, "componentType" : 5123, "count" : 3036, "type" : "SCALAR", "max" : [507], "min" : [0]}, {"bufferView" : 1, "byteOffset" : 0, "componentType" : 5126, "count" : 508, "type" : "VEC3", "max" : [26.12718963623047, 53.77677917480469, 119.72479248046875], "min" : [-42.620628356933594, -1.766814947128296, -132.77151489257812], "name" : "POSITION"}], "asset" : {"generator" : "Aspose.3D 24.9.1", "version" : "2.0"}, "buffers" : [{"uri" : "data:application/octet-stream;base64,", "byteLength" : 12176}], "bufferViews" : [{"buffer" : 0, "byteOffset" : 0, "byteLength" : 6072, "target" : 34963}, {"buffer" : 0, "byteOffset" : 6076, "byteLength" : 6096, "byteStride" : 12, "target" : 34962}], "meshes" : [{"primitives" : [{"attributes" : {"POSITION" : 1}, "indices" : 0, "mode" : 4}], "name" : ""}], "nodes" : [{"mesh" : 0, "name" : "low_poly_log"}], "scene" : 0, "scenes" : [{"nodes" : [0]}]}