{"accessors" : [{"bufferView" : 0, "byteOffset" : 0, "componentType" : 5123, "count" : 11388, "type" : "SCALAR", "max" : [7707], "min" : [0]}, {"bufferView" : 1, "byteOffset" : 0, "componentType" : 5126, "count" : 7708, "type" : "VEC3", "max" : [0.351841002702713, 0.5000230073928833, 0.4410859942436218], "min" : [-0.351841002702713, -0.5000230073928833, -0.4410859942436218], "name" : "POSITION"}, {"bufferView" : 1, "byteOffset" : 12, "componentType" : 5126, "count" : 7708, "type" : "VEC2", "max" : [0.9912279844284058, 0.9870210289955139], "min" : [0.006732999812811613, 0.009890973567962646], "name" : "TEXCOORD_0"}, {"bufferView" : 1, "byteOffset" : 20, "componentType" : 5126, "count" : 7708, "type" : "VEC3", "max" : [0.9991274476051331, 0.9992541670799255, 0.9997756481170654], "min" : [-0.9991274476051331, -0.9997242093086243, -0.9996095299720764], "name" : "NORMAL"}], "asset" : {"generator" : "Aspose.3D 24.9.1", "version" : "2.0"}, "buffers" : [{"uri" : "data:application/octet-stream;base64,", "byteLength" : 269440}], "bufferViews" : [{"buffer" : 0, "byteOffset" : 0, "byteLength" : 22776, "target" : 34963}, {"buffer" : 0, "byteOffset" : 22780, "byteLength" : 246656, "byteStride" : 32, "target" : 34962}], "meshes" : [{"primitives" : [{"attributes" : {"POSITION" : 1, "TEXCOORD_0" : 2, "NORMAL" : 3}, "indices" : 0, "mode" : 4}], "name" : ""}], "nodes" : [{"mesh" : 0, "name" : "Skull"}], "scene" : 0, "scenes" : [{"nodes" : [0]}]}