{"accessors" : [{"bufferView" : 0, "byteOffset" : 0, "componentType" : 5123, "count" : 93984, "type" : "SCALAR", "max" : [16409], "min" : [0]}, {"bufferView" : 1, "byteOffset" : 0, "componentType" : 5126, "count" : 16410, "type" : "VEC3", "max" : [52.19559860229492, 51.16559982299805, 24.455799102783203], "min" : [-49.82339859008789, -50.53010177612305, -1.31850004196167], "name" : "POSITION"}, {"bufferView" : 1, "byteOffset" : 12, "componentType" : 5126, "count" : 16410, "type" : "VEC2", "max" : [0.9868000149726868, 0.9854000210762024], "min" : [0.008999999612569809, 0.0098000168800354], "name" : "TEXCOORD_0"}, {"bufferView" : 1, "byteOffset" : 20, "componentType" : 5126, "count" : 16410, "type" : "VEC3", "max" : [0.998793363571167, 0.9999531507492065, 0.9999959468841553], "min" : [-0.9989959001541138, -0.9999531507492065, -1.000002384185791], "name" : "NORMAL"}], "asset" : {"generator" : "Aspose.3D 24.9.1", "version" : "2.0"}, "buffers" : [{"uri" : "data:application/octet-stream;base64,", "byteLength" : 713096}], "bufferViews" : [{"buffer" : 0, "byteOffset" : 0, "byteLength" : 187968, "target" : 34963}, {"buffer" : 0, "byteOffset" : 187972, "byteLength" : 525120, "byteStride" : 32, "target" : 34962}], "meshes" : [{"primitives" : [{"attributes" : {"POSITION" : 1, "TEXCOORD_0" : 2, "NORMAL" : 3}, "indices" : 0, "mode" : 4}], "name" : ""}], "nodes" : [{"mesh" : 0, "name" : "10042_Sea_Turtle_V1"}], "scene" : 0, "scenes" : [{"nodes" : [0]}]}